<svg version="1.1" viewBox="0.0 0.0 960.0 960.0" fill="none" stroke="none" stroke-linecap="square" stroke-miterlimit="10" xmlns:xlink="http://www.w3.org/1999/xlink" xmlns="http://www.w3.org/2000/svg"><clipPath id="p.0"><path d="m0 0l960.0 0l0 960.0l-960.0 0l0 -960.0z" clip-rule="nonzero"/></clipPath><g clip-path="url(#p.0)"><path fill="#000000" fill-opacity="0.0" d="m0 0l960.0 0l0 960.0l-960.0 0z" fill-rule="evenodd"/><path fill="#000000" d="m244.50131 174.39896l-33.67192 -161.98425l-21.086609 105.41733l15.81102 94.874016l26.35434 57.97899z" fill-rule="evenodd"/><path fill="#000000" d="m152.9685 140.40158l0 105.41469l31.876633 93.00789l32.656174 36.5748l9.498688 -78.0z" fill-rule="evenodd"/><path fill="#000000" d="m131.7979 316.57742l21.05249 96.4147l34.259842 50.07086l63.391083 46.335968l-41.0 -113.0z" fill-rule="evenodd"/><path fill="#000000" d="m167.53806 476.2362l34.257217 84.33075l142.19423 79.433044l-88.48819 -106.09973z" fill-rule="evenodd"/><path fill="#000000" d="m716.324 181.39906l33.468567 -170.2933l21.095154 105.41688l-15.818237 94.872406l-26.659302 64.67561z" fill-rule="evenodd"/><path fill="#000000" d="m813.07874 132.4252l0 105.41469l-17.32544 78.73753l-52.753296 58.422577l-8.850403 -66.979004z" fill-rule="evenodd"/><path fill="#000000" d="m826.2598 322.0761l-18.45929 89.60367l-27.448853 50.351715l-73.351685 47.868774l42.501343 -109.90027z" fill-rule="evenodd"/><path fill="#000000" d="m802.5271 474.92606l-34.274902 84.331024l-145.62982 51.891235l95.52734 -83.51538z" fill-rule="evenodd"/><path fill="#000000" d="m291.76642 801.15485l-17.538086 13.262451l-8.556427 51.336l33.80316 60.020996l39.77954 -10.821533l13.262451 -27.80841l-46.204712 -23.958008z" fill-rule="evenodd"/><path fill="#000000" d="m368.81628 896.55646l-11.157501 24.083984l22.24411 32.514404l80.46457 -12.5354l22.20996 -43.934387l-2.9606323 -22.803162l-51.763763 36.364807z" fill-rule="evenodd"/><path fill="#000000" d="m475.63516 466.30972l53.989532 -20.53543l-5.645691 99.25195z" fill-rule="evenodd"/><path fill="#000000" d="m414.97375 442.3517l40.556427 22.246704l-29.94751 69.73227z" fill-rule="evenodd"/><path fill="#000000" d="m422.67453 752.0866l90.60892 -182.2467l-86.84512 -3.4226074z" fill-rule="evenodd"/><path fill="#000000" d="m465.7979 480.85565l-30.803162 70.160095l75.72177 2.994751z" fill-rule="evenodd"/><path fill="#000000" d="m473.1706 699.03674l203.78217 -161.89502l-138.75592 32.69818z" fill-rule="evenodd"/><path fill="#000000" d="m543.3307 549.30444l6.8294067 -113.79526l105.15485 -87.27298z" fill-rule="evenodd"/><path fill="#000000" d="m702.4593 218.1811l-33.36743 115.50917l56.485596 55.614197z" fill-rule="evenodd"/><path fill="#000000" d="m722.15485 418.39633l-162.34644 130.17587l122.9895 -30.068237z" fill-rule="evenodd"/><path fill="#000000" d="m668.57745 358.50394l42.45404 45.346466l-136.04199 114.653564z" fill-rule="evenodd"/><path fill="#000000" d="m258.39633 215.61417l32.427826 117.22049l-56.370087 59.036743z" fill-rule="evenodd"/><path fill="#000000" d="m407.27298 687.05774l0.8713684 -120.64044l-127.38318 -27.370056z" fill-rule="evenodd"/><path fill="#000000" d="m234.45407 414.1181l36.78476 103.02362l136.03415 31.307068z" fill-rule="evenodd"/><path fill="#000000" d="m404.72177 527.05774l-12.850372 -97.538055l-86.92914 -77.433075z" fill-rule="evenodd"/><path fill="#000000" d="m375.6299 506.52493l-83.950134 -147.16534l-43.637787 45.77426z" fill-rule="evenodd"/><path fill="#000000" d="m397.87665 796.57745l-42.795288 79.57214l-33.35434 -18.824158z" fill-rule="evenodd"/><path fill="#000000" d="m357.66403 754.65356l-42.782135 92.404175l-12.850403 -52.19159z" fill-rule="evenodd"/><path fill="#000000" d="m414.9895 894.97375l-3.422577 -92.4068l-36.80838 83.85034z" fill-rule="evenodd"/><path fill="#000000" d="m432.958 891.5512l44.475067 -33.370117l-13.67453 -62.45929z" fill-rule="evenodd"/><path fill="#000000" d="m408.46982 715.29395l-31.228363 27.380615l-44.391052 90.695496l69.30444 -54.76111z" fill-rule="evenodd"/><path fill="#000000" d="m452.63516 727.27295l-31.656158 57.3255l5.13385 88.1286l32.51181 -94.973755z" fill-rule="evenodd"/><path fill="#000000" d="m417.6 359.38425l10.597046 38.57025l18.635406 2.8789978l0.4671936 -18.434326z" fill-rule="evenodd"/><path fill="#000000" d="m520.15137 358.04733l-10.597076 38.57025l-18.635406 2.8789978l-0.4671936 -18.434326z" fill-rule="evenodd"/></g></svg>